<svg xmlns="http://www.w3.org/2000/svg" width="2000" height="4000" viewBox="0 0 2000 4000" xmlns:xlink="http://www.w3.org/1999/xlink"><defs><path id="a" d="M.534.881h266.258v435.798H.534z"/></defs><g fill="none" fill-rule="evenodd"><path fill="#000" opacity=".1" d="M338.608 436.6L965.86 1800.544l-436.412 125.14zM1662.433 295.385L983.36 1840.045l436.413 125.14z"/><path fill="#000" opacity=".1" d="M945.565 127.109l256.495 1687.78-453.93 7.924z"/><g fill="#000" opacity=".487"><path d="M1145.624 1801.895l-8.793-40.827 1.911-27.854-11.469-24.038-12.234-16.407-13.763-.382.383 20.986 4.205 6.868 7.646 33.578 8.411 26.327-4.97 9.158-30.585 9.92.765 4.197 4.97 2.671 8.028 1.145 21.027.763 20.645-1.145z"/><path d="M1105.429 1714.946l29.34-10.807 28.959-9.317 13.337-10.434 20.195-11.18 5.335-8.944 2.286-13.416-8.383-16.77-3.429-3.727-25.53 15.28-7.621 5.59-22.482 11.925-16.765 12.67-3.811 3.354-11.812 9.317-4.573 8.944 1.143 15.652zM1292.019 1760.161l-35.086-22.65-18.344-21.048-25.108-8.888-20.253-2.95-10 9.462 15.109 14.57 7.83 1.881 29.15 18.336 24.563 12.669 2.96 9.99-14.611 28.641 3.509 2.428 5.403-1.626 6.486-4.868 15.407-14.328 13.79-15.408z"/><path d="M1202.041 1706.442l-3.356-26.953-8.438-12.278-9.041-18.594-7.233-4.911-10.85-2.105-11.838 7.016 5.413 27.364 4.52 7.017 9.644 20.698 12.454 15.436 2.712 3.508s10.547 5.238 12.657 3.103c2.111-2.135 3.356-19.3 3.356-19.3z"/><path d="M1106.119 1554.365l20.397 41.992 26.44 57.74 7.177 14.998 28.329 6.373 11.331-4.124 2.266-23.996-7.932-11.998-6.043-14.247-3.4-7.124-3.021-54.74-6.422-4.499-12.464-7.124-11.71-4.874-21.53 1.499-9.065-4.124-12.842 8.249z"/><path d="M1189.806 1641.63h-6.058l-38.625-14.344-9.467-5.149-29.537-12.137 9.467-18.023 6.437.368 2.651-1.471 8.71 6.988 5.301 7.356 13.632 5.885 9.846 3.678s7.262.466 10.982 0c3.72-.466 17.04 5.517 17.04 5.517s3.472 7.076 3.408 10.666c-.064 3.59-3.787 10.667-3.787 10.667z"/><path d="M1156.911 1570.452l4.515-13.416h13.921l10.158 4.099 5.644 18.634-.753 5.589 6.02 21.988v21.987l-4.891 12.298-21.446-25.341-4.891-6.336-4.891-15.652 1.881-6.708-3.01-5.962zM1081.716 1531.658l4.162 1.084 12.863.723 25.727 3.615 15.512 12.653-9.458 10.123-24.592-5.061-13.242-5.062-6.432.362-7.945-3.615-6.054-10.846z"/><path d="M1013 1543.877l1.151-15.04 29.938 1.584 18.422-1.583 19.575 5.54s4.866 6.473 4.222 9.499c-.645 3.026-7.677 6.728-7.677 6.728l-14.2.791-20.726-7.915-10.747-.791-2.687 2.77-7.292 3.562-9.979-5.145zM1128.478 1563.221l11.581 2.274 11.208-21.603-6.35-16.297 2.614-16.298L1134.83 1495s-14.58.012-19.8 1.516c-5.22 1.504-10.461 7.201-10.461 7.201s-1.645 1.217-1.868 1.895c-.223.679.43 2.483.43 2.483l-3.045 9.266s-.801 3.868-.374 4.549c.427.68 1.868.379 1.868.379l-3.736 9.854s-.427 1.745 0 2.274c.427.529 4.483 1.137 4.483 1.137s-.747 1.808-.747 2.653.747 1.895.747 1.895l7.472 4.169-5.23 2.274v8.717l8.593 4.17 3.735-1.896 7.472-6.822 4.11 12.507z"/></g><g fill="#000" opacity=".487"><path d="M971.64 1812.895l8.808-40.827-1.915-27.854 11.489-24.038 12.255-16.407 13.787-.382-.383 20.986-4.212 6.868-7.66 33.578-8.425 26.327 4.979 9.158 30.637 9.92-.766 4.197-4.979 2.671-8.042 1.145-21.063.763-20.68-1.145z"/><path d="M1011.905 1725.946l-29.392-10.807-29.009-9.317-13.36-10.434-20.23-11.18-5.344-8.944-2.29-13.416 8.397-16.77 3.436-3.727 25.574 15.28 7.634 5.59 22.52 11.925 16.795 12.67 3.817 3.354 11.833 9.317 4.581 8.944-1.145 15.652zM825.055 1771.125l35.096-22.64 18.342-21.05 25.122-8.874 20.267-2.936 10.019 9.48-15.11 14.568-7.835 1.878-29.16 18.326-24.573 12.659-2.955 9.996 14.65 28.678-3.51 2.427-5.41-1.632-6.495-4.877-15.434-14.355-13.814-15.432z"/><path d="M915.169 1717.481l3.356-27 8.438-12.3 9.041-18.625 7.233-4.92 10.85-2.108 11.838 7.028-5.413 27.412-4.52 7.028-9.644 20.734-12.454 15.463-2.712 3.514s-10.547 5.247-12.657 3.108c-2.111-2.139-3.356-19.334-3.356-19.334z"/><path d="M1011.213 1565.365l-20.432 41.992-26.486 57.74-7.189 14.998-28.378 6.373-11.351-4.124-2.27-23.996 7.945-11.998 6.054-14.247 3.406-7.124 3.027-54.74 6.432-4.499 12.486-7.124 11.73-4.874 21.567 1.499 9.081-4.124 12.865 8.249z"/><path d="M926.372 1632.288l1.158 5.958 21.464 35.244 6.864 8.327 17.56 26.728 15.882-12.748-1.592-6.26.938-2.887-8.525-7.23-8.234-3.81-8.382-12.283-5.493-8.98s-1.845-7.051-2.099-10.798c-.253-3.746-8.673-15.703-8.673-15.703s-7.61-2.064-11.121-1.316c-3.512.747-9.747 5.758-9.747 5.758z"/><path d="M960.333 1581.452l-4.522-13.416h-13.945l-10.176 4.099-5.654 18.634.754 5.589-6.03 21.988v21.987l4.9 12.298 21.482-25.341 4.9-6.336 4.899-15.652-1.884-6.708 3.015-5.962zM1028.215 1626.649l-1.158 5.958-21.464 35.244-6.864 8.326-17.56 26.729-15.882-12.748 1.592-6.26-.938-2.888 8.525-7.23 8.234-3.81 8.382-12.282 5.493-8.98s1.845-7.052 2.099-10.798c.253-3.747 8.672-15.704 8.672-15.704s7.61-2.064 11.122-1.316c3.512.748 9.747 5.759 9.747 5.759z"/><path d="M985.773 1575.812l4.523-13.416h13.945l10.176 4.1 5.653 18.633-.754 5.59 6.031 21.987v21.987l-4.9 12.298-21.483-25.341-4.899-6.335-4.9-15.652 1.885-6.708-3.015-5.963z"/><path d="M988.815 1574.221l-11.601 2.274-11.227-21.603 6.362-16.297-2.62-16.298L982.453 1506s14.606.012 19.835 1.516c5.229 1.504 10.479 7.201 10.479 7.201s1.648 1.217 1.871 1.895c.224.679-.43 2.483-.43 2.483l3.05 9.266s.802 3.868.374 4.549c-.428.68-1.871.379-1.871.379l3.742 9.854s.428 1.745 0 2.274c-.427.529-4.49 1.137-4.49 1.137s.748 1.808.748 2.653-.749 1.895-.749 1.895l-7.484 4.169 5.239 2.274v8.717l-8.608 4.17-3.742-1.896-7.485-6.822-4.117 12.507z"/></g><path fill="#D8D8D8" d="M584.058 1461h22.56v336h-22.56zM491 1461h22.56v336H491zM849.133 1461h22.56v336h-22.56zM1193.166 1461h22.56v336h-22.56zM1421.582 1461h22.56v336h-22.56zM1486.44 1461H1509v336h-22.56z"/><path fill="#000" opacity=".052" d="M502.28 1475.118h995.44v310.588H502.28z"/><g><path fill="#D8D8D8" d="M491 1786h1018v214H491z"/><path fill="#E3E3E3" d="M491 1786h298.914v214H491z"/><path fill="#CACACA" d="M1187.526 1786H1509v214h-321.474z"/><path d="M1127.679 1843.285c-14.87 4.6-15.107 3.862-40.559 11.037 0 0-29.951 8.838-29.951 39.825 0 30.98 17.926 40.49 32.825 43.962v-12.117s-20.86-2.889-20.86-31.905c0-25.057 28.84-30.22 28.84-30.22l.128 76.244 11.766 3.127-.041-82.72 17.852-4.897v-12.336zm-207.168 10.926l-16.976 58.344-13.99-65.668-14.499-3.9 24.272 98.391 7.763-2.185 25.32-82.518-11.89-2.464zm58.286 8.075c-5.853-1.857-36.85-4.369-36.85-4.369l-24.287 79.093s18.245-4.014 48.824-5.582c-.27-4.903-.32-7.77-1.098-11.714-3.939.348-31.049 2.667-31.049 2.667l4.685-14.93 10.313-.323 3.437-11.625-10.592.221 8.192-25.133s20.144 1.793 22.419 2.408c4.697 1.175 6.412 4.752 6.412 10.704-.45 5.924-3.766 9.414-11.36 10.935-3.423.767-6.24.795-6.24.795l-3.237 11.398s6.572-.276 11.308 4c4.454 4.33 5.574 6.697 6.166 20.132 5.715-.133 7.6-.31 12.355-.38-.89-20.1-10.163-27.566-10.163-27.566s11.939-6.203 12.678-18.877c.128-6.114-2.14-19.136-11.91-21.854h-.003zm13.343-1.249c2.701 3.444 4.714 8.373 5.741 12.893 4.013-.006 24.547-.909 24.908 20.632 0 27.144-21.311 24.002-27.871 24.046 1.216 4.632 1.318 8.89 1.542 11.905 6.032.013 38.188 4.91 38.188-36.144 0-34.39-34.719-33.35-42.504-33.332h-.004zm48.053 70.737l11.114.792v-73.654l-11.114.865v71.997z" fill="#C53F35"/></g><g><path fill="#BEBEBE" d="M1335 1879h194.455v36.581H1335z"/><path fill="#A6A6A6" d="M1363.182 1907.14h194.455v36.581h-194.455z"/><path fill="#BEBEBE" d="M1391.364 1935.279h194.455v36.581h-194.455z"/><path fill="#A6A6A6" d="M1419.545 1963.419H1614V2000h-194.455z"/></g><g><g fill="#787878" transform="matrix(-1 0 0 1 1332 2275)"><path d="M162.595 295.27c-13.242-32.775 2.585-70.076 35.37-83.322l55.643-22.481 76.598-162.69c15.057-31.98 32.325-29.702 38.57 5.094l42.335 235.887 218.401 540.563c13.24 32.77-2.59 70.066-35.364 83.308l-104.524 42.23c-32.77 13.24-70.074-2.602-83.314-35.371L162.595 295.27z"/><ellipse cx="57.446" cy="132.077" rx="39.209" ry="39.204"/><ellipse cx="39.209" cy="183.133" rx="39.209" ry="39.204"/><ellipse cx="39.209" cy="241.483" rx="39.209" ry="39.204"/><ellipse cx="55.622" cy="308.95" rx="39.209" ry="39.204"/></g><path d="M982.945 2222h293.613v528.793H982.945z" fill="#3B3B3B"/><g transform="translate(997 2243)"><mask id="b" fill="#fff"><use xlink:href="#a"/></mask><use fill="#D8D8D8" xlink:href="#a"/><g mask="url(#b)"><path fill="#D8D8D8" d="M.534.881h266.258v435.798H.534z"/><rect width="58" height="58" x="23" y="33" fill="#9D9D9D" rx="8"/><rect width="58" height="58" x="23" y="115" fill="#9D9D9D" rx="8"/><rect width="58" height="58" x="105" y="33" fill="#9D9D9D" rx="8"/><rect width="58" height="58" x="105" y="115" fill="#9D9D9D" rx="8"/><rect width="58" height="58" x="187" y="33" fill="#9D9D9D" rx="8"/><rect width="58" height="58" x="187" y="115" fill="#9D9D9D" rx="8"/><rect width="58" height="58" x="23" y="197" fill="#9D9D9D" rx="8"/><rect width="58" height="58" x="105" y="197" fill="#9D9D9D" rx="8"/><rect width="58" height="58" x="187" y="197" fill="#9D9D9D" rx="8"/><rect width="58" height="58" x="23" y="279" fill="#9D9D9D" rx="8"/><rect width="58" height="58" x="105" y="279" fill="#9D9D9D" rx="8"/><rect width="58" height="58" x="187" y="279" fill="#9D9D9D" rx="8"/><rect width="58" height="58" x="23" y="361" fill="#9D9D9D" rx="8"/><rect width="58" height="58" x="105" y="361" fill="#9D9D9D" rx="8"/><rect width="58" height="58" x="187" y="361" fill="#9D9D9D" rx="8"/></g><g transform="translate(-22)" mask="url(#b)"><path fill="#F4F4F4" d="M22.534.881h266.258v435.798H22.534z"/><text font-family="OpenSans-Bold, Open Sans" font-size="33" font-weight="bold"><tspan x="38.099" y="186" fill="#C04040">NOTIFICATION</tspan></text></g><g mask="url(#b)"><path fill="#F4F4F4" d="M.534.881h266.258v435.798H.534z"/><circle cx="73" cy="80" r="50" fill="#D8D8D8"/><path fill="#D8D8D8" d="M149 159h96v50h-96zM149 229h96v50h-96zM149 299h96v50h-96zM29 159h96v50H29zM29 229h96v50H29zM29 299h96v50H29z"/><circle cx="193" cy="80" r="50" fill="#D8D8D8"/></g></g><g fill="#787878"><path d="M1278.67 2635.75c0-35.35-28.648-64.006-64.009-64.006h-60.012l-116.705 131.592v583.016c0 35.343 28.649 63.994 63.996 63.994h112.734c35.344 0 63.996-28.663 63.996-64.006v-650.59z"/><path d="M1137.946 2797.625c35.317 1.397 68.43-25.775 73.958-60.674l25.036-158.069-96.476-30.616s-43.126-173.476-83.032-168.139c-39.906 5.338-.224 349.703-.224 349.703v64.6l80.738 3.195z"/></g></g><text fill="#323030" transform="translate(742 2071)" font-size="72" font-family="OpenSans-Bold, Open Sans" font-weight="bold"><tspan x=".232" y="77">Message box 2</tspan></text><path fill="#323030" d="M772.463 1312l-12.375-40.324h-.317c.446 8.203.668 13.676.668 16.418V1312h-9.738v-51.398h14.836l12.164 39.304h.211l12.902-39.304h14.836V1312h-10.16v-24.328c0-1.149.018-2.473.053-3.973s.193-5.484.475-11.953h-.317L782.447 1312h-9.984zm61.558-32.414c-2.273 0-4.054.72-5.343 2.162-1.29 1.441-2.028 3.486-2.215 6.135h15.047c-.047-2.649-.739-4.694-2.074-6.135-1.336-1.441-3.141-2.162-5.415-2.162zm1.512 33.117c-6.328 0-11.273-1.746-14.836-5.238-3.562-3.492-5.343-8.438-5.343-14.836 0-6.586 1.646-11.678 4.939-15.275 3.293-3.598 7.846-5.397 13.658-5.397 5.555 0 9.88 1.582 12.973 4.746 3.094 3.164 4.64 7.535 4.64 13.113v5.204h-25.347c.117 3.046 1.02 5.425 2.707 7.136 1.687 1.711 4.055 2.567 7.101 2.567 2.368 0 4.606-.246 6.715-.739 2.11-.492 4.313-1.277 6.61-2.355v8.297a25.178 25.178 0 0 1-6.012 2.092c-2.133.457-4.734.685-7.805.685zm52.172-12.375c0 4.031-1.4 7.102-4.201 9.211-2.8 2.11-6.99 3.164-12.568 3.164-2.86 0-5.297-.193-7.313-.58a27.66 27.66 0 0 1-5.66-1.705v-8.86c1.992.938 4.236 1.723 6.732 2.356 2.496.633 4.694.95 6.592.95 3.89 0 5.836-1.126 5.836-3.376 0-.843-.258-1.529-.773-2.056-.516-.528-1.407-1.125-2.672-1.793-1.266-.668-2.953-1.448-5.063-2.338-3.023-1.266-5.244-2.438-6.662-3.516-1.418-1.078-2.45-2.314-3.094-3.709-.644-1.394-.966-3.111-.966-5.15 0-3.492 1.353-6.194 4.06-8.104 2.707-1.91 6.545-2.865 11.514-2.865 4.734 0 9.34 1.031 13.816 3.094l-3.234 7.734a59.498 59.498 0 0 0-5.52-2.074 17.332 17.332 0 0 0-5.238-.809c-3.164 0-4.746.856-4.746 2.567 0 .96.51 1.793 1.53 2.496 1.019.703 3.251 1.746 6.696 3.129 3.07 1.242 5.32 2.402 6.75 3.48 1.43 1.078 2.485 2.32 3.165 3.727.68 1.406 1.02 3.082 1.02 5.027zm35.79 0c0 4.031-1.401 7.102-4.202 9.211-2.8 2.11-6.99 3.164-12.568 3.164-2.86 0-5.297-.193-7.313-.58a27.66 27.66 0 0 1-5.66-1.705v-8.86c1.992.938 4.236 1.723 6.732 2.356 2.496.633 4.694.95 6.592.95 3.89 0 5.836-1.126 5.836-3.376 0-.843-.258-1.529-.773-2.056-.516-.528-1.407-1.125-2.672-1.793-1.266-.668-2.953-1.448-5.063-2.338-3.023-1.266-5.244-2.438-6.662-3.516-1.418-1.078-2.449-2.314-3.094-3.709-.644-1.394-.966-3.111-.966-5.15 0-3.492 1.353-6.194 4.06-8.104 2.707-1.91 6.545-2.865 11.514-2.865 4.734 0 9.34 1.031 13.816 3.094l-3.234 7.734a59.498 59.498 0 0 0-5.52-2.074 17.332 17.332 0 0 0-5.238-.809c-3.164 0-4.746.856-4.746 2.567 0 .96.51 1.793 1.53 2.496 1.019.703 3.251 1.746 6.697 3.129 3.07 1.242 5.32 2.402 6.75 3.48 1.43 1.078 2.484 2.32 3.164 3.727.68 1.406 1.02 3.082 1.02 5.027zM956.821 1312l-2.074-5.344h-.281c-1.805 2.274-3.662 3.85-5.572 4.729-1.91.879-4.4 1.318-7.471 1.318-3.774 0-6.744-1.078-8.912-3.234-2.168-2.157-3.252-5.227-3.252-9.211 0-4.172 1.459-7.248 4.377-9.229 2.918-1.98 7.318-3.076 13.2-3.287l6.821-.21v-1.723c0-3.985-2.039-5.977-6.117-5.977-3.14 0-6.832.95-11.074 2.848l-3.551-7.243c4.523-2.367 9.54-3.55 15.047-3.55 5.273 0 9.316 1.148 12.129 3.445 2.812 2.297 4.219 5.79 4.219 10.477V1312h-7.489zm-3.164-18.21l-4.148.14c-3.117.093-5.438.656-6.961 1.687-1.524 1.031-2.285 2.602-2.285 4.711 0 3.024 1.734 4.535 5.203 4.535 2.484 0 4.47-.715 5.959-2.144 1.488-1.43 2.232-3.328 2.232-5.696v-3.234zm55.899-21.095v5.45l-6.153 1.582c1.125 1.757 1.688 3.726 1.688 5.906 0 4.219-1.47 7.506-4.412 9.861-2.942 2.356-7.026 3.533-12.252 3.533l-1.934-.105-1.582-.176c-1.101.844-1.652 1.781-1.652 2.813 0 1.546 1.968 2.32 5.906 2.32h6.68c4.312 0 7.6.926 9.861 2.777 2.262 1.852 3.393 4.57 3.393 8.156 0 4.594-1.916 8.157-5.748 10.688-3.832 2.531-9.334 3.797-16.506 3.797-5.485 0-9.674-.955-12.569-2.865-2.894-1.91-4.341-4.588-4.341-8.034 0-2.367.738-4.347 2.214-5.941 1.477-1.594 3.645-2.73 6.504-3.41-1.101-.469-2.062-1.236-2.883-2.303-.82-1.066-1.23-2.197-1.23-3.392 0-1.5.434-2.748 1.3-3.745.868-.996 2.122-1.974 3.763-2.935-2.063-.89-3.698-2.32-4.905-4.29-1.207-1.968-1.81-4.288-1.81-6.96 0-4.29 1.394-7.606 4.183-9.95 2.79-2.343 6.774-3.515 11.953-3.515 1.102 0 2.409.1 3.92.299 1.512.2 2.479.346 2.9.44h13.712zm-30.34 44.86c0 1.476.709 2.636 2.127 3.48 1.418.844 3.404 1.266 5.959 1.266 3.844 0 6.855-.528 9.035-1.582 2.18-1.055 3.27-2.496 3.27-4.324 0-1.477-.645-2.497-1.934-3.06-1.29-.562-3.281-.843-5.977-.843h-5.554c-1.97 0-3.616.463-4.94 1.389-1.324.926-1.986 2.15-1.986 3.674zm3.902-31.993c0 2.133.486 3.82 1.46 5.063.972 1.242 2.454 1.863 4.446 1.863 2.016 0 3.493-.62 4.43-1.863.938-1.242 1.406-2.93 1.406-5.063 0-4.734-1.945-7.101-5.836-7.101-3.937 0-5.906 2.367-5.906 7.101zm49.184-5.976c-2.274 0-4.055.72-5.344 2.162-1.29 1.441-2.027 3.486-2.215 6.135h15.047c-.047-2.649-.738-4.694-2.074-6.135-1.336-1.441-3.14-2.162-5.414-2.162zm1.511 33.117c-6.328 0-11.273-1.746-14.835-5.238-3.563-3.492-5.344-8.438-5.344-14.836 0-6.586 1.646-11.678 4.94-15.275 3.292-3.598 7.845-5.397 13.657-5.397 5.555 0 9.88 1.582 12.973 4.746 3.094 3.164 4.64 7.535 4.64 13.113v5.204h-25.347c.117 3.046 1.02 5.425 2.707 7.136 1.688 1.711 4.055 2.567 7.102 2.567 2.367 0 4.605-.246 6.714-.739 2.11-.492 4.313-1.277 6.61-2.355v8.297a25.178 25.178 0 0 1-6.012 2.092c-2.133.457-4.734.685-7.805.685zm65.32-40.746c4.641 0 8.274 1.81 10.9 5.432 2.624 3.62 3.937 8.584 3.937 14.888 0 6.493-1.354 11.52-4.06 15.082-2.708 3.563-6.393 5.344-11.057 5.344-4.618 0-8.239-1.676-10.864-5.027h-.738l-1.793 4.324h-8.191v-54.703h10.722v12.726c0 1.618-.14 4.207-.422 7.77h.422c2.508-3.89 6.223-5.836 11.145-5.836zm-3.445 8.578c-2.648 0-4.582.815-5.8 2.444-1.22 1.628-1.852 4.318-1.899 8.068v1.16c0 4.219.627 7.242 1.881 9.07 1.254 1.828 3.24 2.743 5.96 2.743 2.202 0 3.954-1.014 5.255-3.041 1.3-2.028 1.951-4.975 1.951-8.842 0-3.867-.656-6.768-1.969-8.701-1.312-1.934-3.105-2.9-5.379-2.9zm35.684 11.742c0 3.891.639 6.832 1.916 8.825 1.277 1.992 3.357 2.988 6.24 2.988 2.86 0 4.916-.99 6.17-2.97 1.254-1.981 1.881-4.929 1.881-8.843 0-3.89-.633-6.808-1.898-8.754-1.266-1.945-3.34-2.918-6.223-2.918-2.86 0-4.922.967-6.188 2.9-1.265 1.934-1.898 4.858-1.898 8.772zm27.176 0c0 6.399-1.688 11.403-5.063 15.012-3.375 3.61-8.074 5.414-14.097 5.414-3.774 0-7.102-.826-9.985-2.478-2.883-1.653-5.097-4.026-6.644-7.12-1.547-3.093-2.32-6.703-2.32-10.828 0-6.422 1.675-11.414 5.027-14.976 3.351-3.563 8.062-5.344 14.133-5.344 3.773 0 7.101.82 9.984 2.461 2.883 1.64 5.098 3.996 6.645 7.066 1.546 3.07 2.32 6.668 2.32 10.793zm15.469-.351l-12.657-19.23h12.164l7.63 12.515 7.699-12.516h12.164l-12.797 19.23 13.394 20.075h-12.199l-8.262-13.465-8.297 13.465h-12.164l13.325-20.074zm76.394 20.074h-10.863v-29.742l.105-4.887.176-5.344c-1.805 1.805-3.059 2.989-3.762 3.551l-5.906 4.746-5.238-6.539 16.558-13.183h8.93V1312z"/></g></svg>