<svg xmlns="http://www.w3.org/2000/svg" width="2000" height="4000" viewBox="0 0 2000 4000" xmlns:xlink="http://www.w3.org/1999/xlink">
  <defs>
    <rect id="path-1" width="266.258" height="435.798" x=".534" y=".881"/>
  </defs>
  <g id="Page-1" fill="none" fill-rule="evenodd">
    <g id="prototype">
      <g id="Cage" transform="translate(120 123)">
        <polygon id="Triangle" fill="#000000" points="423.131 284.857 650.131 1768.857 196.131 1768.857" opacity=".1" transform="rotate(-16 423.131 1026.857)"/>
        <polygon id="Triangle-Copy-2" fill="#000000" points="1312 140 1539 1812 1085 1812" opacity=".1" transform="scale(-1 1) rotate(-16 0 10311.365)"/>
        <polygon id="Triangle-Copy" fill="#000000" points="840.33 3.98 1067.33 1695.98 613.33 1695.98" opacity=".1" transform="rotate(-1 840.33 849.98)"/>
        <g id="Group-3" fill="#000000" transform="translate(893 1372)" opacity=".487">
          <polygon id="Path-3" points="132.624 306.895 123.831 266.068 125.742 238.214 114.273 214.176 102.039 197.769 88.276 197.387 88.659 218.373 92.864 225.241 100.51 258.819 108.921 285.146 103.951 294.304 73.366 304.224 74.131 308.421 79.101 311.092 87.129 312.237 108.156 313 128.801 311.855"/>
          <polygon id="Path-4" points="92.429 219.946 121.769 209.139 150.728 199.822 164.065 189.388 184.26 178.208 189.595 169.264 191.881 155.848 183.498 139.078 180.069 135.351 154.539 150.631 146.918 156.221 124.436 168.146 107.671 180.816 103.86 184.17 92.048 193.487 87.475 202.431 88.618 218.083"/>
          <polygon id="Path-3-Copy" points="251.139 301.255 242.346 260.429 244.257 232.575 232.788 208.536 220.554 192.129 206.791 191.748 207.173 212.734 211.379 219.602 219.025 253.179 227.436 279.506 222.466 288.664 191.881 298.584 192.646 302.782 197.616 305.453 205.644 306.597 226.671 307.36 247.316 306.216" transform="rotate(-45 221.51 249.554)"/>
          <path id="Path-4-Copy" d="M141.148908,214.306306 L168.101536,210.950465 L180.380237,202.512069 L198.973698,193.470931 L203.885179,186.23802 L205.990099,175.388654 L198.973698,163.54955 L171.609736,168.962641 L164.593336,173.48321 L143.894954,183.127091 L128.458873,195.58053 L124.950673,198.292872 C124.950673,198.292872 119.713211,208.839753 121.848281,210.950465 C123.983352,213.061178 141.148908,214.306306 141.148908,214.306306 Z" transform="rotate(-90 163.663 188.928)"/>
          <polygon id="Path-5" points="93.119 59.365 113.516 101.357 139.956 159.097 147.133 174.095 175.462 180.468 186.793 176.344 189.059 152.348 181.127 140.35 175.084 126.103 171.684 118.979 168.663 64.239 162.241 59.74 149.777 52.616 138.067 47.742 116.537 49.241 107.472 45.117 94.63 53.366"/>
          <path id="Path-6" d="M176.806423,146.630631 L170.747591,146.630631 L132.12254,132.28633 L122.655616,127.137094 L93.1188119,114.999608 L102.585736,96.9772816 L109.023245,97.3450842 L111.673984,95.8738739 L120.383554,102.862123 L125.685032,110.218175 L139.317403,116.103016 L149.163004,119.781042 C149.163004,119.781042 156.425129,120.247196 160.144636,119.781042 C163.864143,119.314888 177.1851,125.298081 177.1851,125.298081 C177.1851,125.298081 180.656917,132.374476 180.593193,135.964356 C180.529468,139.554235 176.806423,146.630631 176.806423,146.630631 Z"/>
          <polygon id="Path-7" points="143.911 75.452 148.426 62.036 162.347 62.036 172.505 66.135 178.149 84.769 177.396 90.358 183.416 112.346 183.416 134.333 178.525 146.631 157.079 121.29 152.188 114.954 147.297 99.302 149.178 92.594 146.168 86.632"/>
          <polygon id="Path-8" points="68.716 36.658 72.878 37.742 85.741 38.465 111.468 42.08 126.98 54.733 117.522 64.856 92.93 59.795 79.688 54.733 73.256 55.095 65.311 51.48 59.257 40.634"/>
          <path id="Path-8-Copy" d="M0,48.8768769 L1.15142796,33.8378378 L31.0885548,35.4208946 L49.5114022,33.8378378 L69.0856774,39.3785364 C69.0856774,39.3785364 73.951824,45.8505714 73.3075799,48.8768769 C72.6633358,51.9031823 65.6313936,55.604868 65.6313936,55.604868 L51.4304487,56.3963964 L30.7047455,48.4811127 L19.9580846,47.6895843 L17.2714194,50.4599336 L9.97904229,54.0218113 L0,48.8768769 Z"/>
          <path id="Path-9" d="M115.477953,68.2214473 L127.059438,70.4954955 L138.267327,48.8920372 L131.91619,32.5946915 L134.531364,16.2973457 L121.82909,0 C121.82909,0 107.248229,0.0124133405 102.028486,1.51603216 C96.8087439,3.01965098 91.5677901,8.71718493 91.5677901,8.71718493 C91.5677901,8.71718493 89.9227333,9.93376373 89.6998087,10.6122251 C89.4768841,11.2906865 90.1294774,13.0946274 90.1294774,13.0946274 L87.0846346,22.3614744 C87.0846346,22.3614744 86.2838895,26.2286139 86.7110383,26.9095709 C87.1381871,27.5905279 88.5790198,27.2885789 88.5790198,27.2885789 L84.8430569,37.1427879 C84.8430569,37.1427879 84.4164759,38.8879071 84.8430569,39.4168362 C85.2696378,39.9457653 89.3262124,40.5538603 89.3262124,40.5538603 C89.3262124,40.5538603 88.5790198,42.361847 88.5790198,43.2069166 C88.5790198,44.0519862 89.3262124,45.1019568 89.3262124,45.1019568 L96.7981382,49.2710452 L91.5677901,51.5450935 L91.5677901,60.2622784 L100.160505,64.4313669 L103.896468,62.5363266 L111.368394,55.7141819 L115.477953,68.2214473 Z"/>
        </g>
        <g id="Group-3-Copy" fill="#000000" transform="matrix(-1 0 0 1 911 1383)" opacity=".487">
          <polygon id="Path-3" points="59.36 306.895 50.552 266.068 52.467 238.214 40.978 214.176 28.723 197.769 14.936 197.387 15.319 218.373 19.531 225.241 27.191 258.819 35.616 285.146 30.637 294.304 0 304.224 .766 308.421 5.745 311.092 13.787 312.237 34.85 313 55.53 311.855"/>
          <polygon id="Path-4" points="19.095 219.946 48.487 209.139 77.496 199.822 90.856 189.388 111.086 178.208 116.43 169.264 118.72 155.848 110.323 139.078 106.887 135.351 81.313 150.631 73.679 156.221 51.159 168.146 34.364 180.816 30.547 184.17 18.714 193.487 14.133 202.431 15.278 218.083"/>
          <polygon id="Path-3-Copy" points="178.08 301.255 169.272 260.429 171.187 232.575 159.698 208.536 147.443 192.129 133.656 191.748 134.039 212.734 138.251 219.602 145.911 253.179 154.336 279.506 149.357 288.664 118.72 298.584 119.486 302.782 124.465 305.453 132.507 306.597 153.57 307.36 174.25 306.216" transform="rotate(-45 148.4 249.554)"/>
          <path id="Path-4-Copy" d="M67.8999022,214.306306 L94.8991855,210.950465 L107.199141,202.512069 L125.824787,193.470931 L130.74477,186.23802 L132.853333,175.388654 L125.824787,163.54955 L98.4134585,168.962641 L91.3849126,173.48321 L70.6507022,183.127091 L55.1879013,195.58053 L51.6736283,198.292872 C51.6736283,198.292872 46.4271003,208.839753 48.5658667,210.950465 C50.7046331,213.061178 67.8999022,214.306306 67.8999022,214.306306 Z" transform="rotate(-90 90.453 188.928)"/>
          <polygon id="Path-5" points="19.787 59.365 40.219 101.357 66.705 159.097 73.894 174.095 102.272 180.468 113.623 176.344 115.893 152.348 107.948 140.35 101.894 126.103 98.488 118.979 95.461 64.239 89.029 59.74 76.543 52.616 64.813 47.742 43.246 49.241 34.165 45.117 21.3 53.366"/>
          <path id="Path-6" d="M112.099141,186.108108 L106.029821,186.108108 L67.3379102,171.763807 L57.8545986,166.614571 L28.2666667,154.477086 L37.7499782,136.454759 L44.19863,136.822562 L46.8539573,135.351351 L55.5786039,142.3396 L60.8892583,149.695652 L74.5452269,155.580494 L84.4078709,159.258519 C84.4078709,159.258519 91.6825668,159.724674 95.4085123,159.258519 C99.1344578,158.792365 112.478473,164.775558 112.478473,164.775558 C112.478473,164.775558 115.9563,171.851954 115.892465,175.441833 C115.82863,179.031713 112.099141,186.108108 112.099141,186.108108 Z" transform="rotate(-79 72.08 160.73)"/>
          <polygon id="Path-7" points="70.667 75.452 75.189 62.036 89.134 62.036 99.31 66.135 104.964 84.769 104.21 90.358 110.24 112.346 110.24 134.333 105.34 146.631 83.858 121.29 78.958 114.954 74.059 99.302 75.943 92.594 72.928 86.632"/>
          <path id="Path-6-Copy" d="M75.3524739,180.468468 L69.2831546,180.468468 L30.5912435,166.124168 L21.107932,160.974931 L-8.48,148.837446 L1.00331153,130.815119 L7.45196337,131.182922 L10.1072906,129.711712 L18.8319372,136.699961 L24.1425917,144.056013 L37.7985603,149.940854 L47.6612043,153.61888 C47.6612043,153.61888 54.9359001,154.085034 58.6618456,153.61888 C62.3877912,153.152726 75.7318064,159.135919 75.7318064,159.135919 C75.7318064,159.135919 79.2096333,166.212314 79.1457985,169.802193 C79.0819638,173.392073 75.3524739,180.468468 75.3524739,180.468468 Z" transform="scale(-1 1) rotate(-79 0 197.953)"/>
          <polygon id="Path-7-Copy" points="5.653 69.812 10.176 56.396 24.121 56.396 34.297 60.496 39.95 79.129 39.196 84.719 45.227 106.706 45.227 128.693 40.327 140.991 18.844 115.65 13.945 109.315 9.045 93.663 10.93 86.955 7.915 80.992" transform="matrix(-1 0 0 1 50.88 0)"/>
          <path id="Path-9" d="M42.1845112,68.2214473 L53.7860438,70.4954955 L65.0133333,48.8920372 L58.6512026,32.5946915 L61.2709035,16.2973457 L48.546642,0 C48.546642,0 33.9405415,0.0124133405 28.7117637,1.51603216 C23.482986,3.01965098 18.2329601,8.71718493 18.2329601,8.71718493 C18.2329601,8.71718493 16.5850557,9.93376373 16.3617452,10.6122251 C16.1384347,11.2906865 16.7921577,13.0946274 16.7921577,13.0946274 L13.7420443,22.3614744 C13.7420443,22.3614744 12.9399131,26.2286139 13.3678013,26.9095709 C13.7956895,27.5905279 15.2390162,27.2885789 15.2390162,27.2885789 L11.4965864,37.1427879 C11.4965864,37.1427879 11.069267,38.8879071 11.4965864,39.4168362 C11.9239057,39.9457653 15.9875022,40.5538603 15.9875022,40.5538603 C15.9875022,40.5538603 15.2390162,42.361847 15.2390162,43.2069166 C15.2390162,44.0519862 15.9875022,45.1019568 15.9875022,45.1019568 L23.4723619,49.2710452 L18.2329601,51.5450935 L18.2329601,60.2622784 L26.8405488,64.4313669 L30.5829786,62.5363266 L38.0678384,55.7141819 L42.1845112,68.2214473 Z"/>
        </g>
        <g id="Ring-upper" transform="translate(371 1338)">
          <rect id="Rectangle-3" width="22.56" height="336" x="93.058" fill="#D8D8D8"/>
          <rect id="Rectangle-3-Copy-5" width="22.56" height="336" fill="#D8D8D8"/>
          <rect id="Rectangle-3-Copy" width="22.56" height="336" x="358.133" fill="#D8D8D8"/>
          <rect id="Rectangle-3-Copy-2" width="22.56" height="336" x="702.166" fill="#D8D8D8"/>
          <rect id="Rectangle-3-Copy-3" width="22.56" height="336" x="930.582" fill="#D8D8D8"/>
          <rect id="Rectangle-3-Copy-4" width="22.56" height="336" x="995.44" fill="#D8D8D8"/>
          <rect id="Rectangle-4" width="995.44" height="310.588" x="11.28" y="14.118" fill="#000000" opacity=".052"/>
        </g>
        <g id="Ring-lower" transform="translate(371 1663)">
          <rect id="Rectangle" width="1018" height="214" fill="#D8D8D8"/>
          <rect id="Rectangle-Copy" width="298.914" height="214" fill="#E3E3E3"/>
          <rect id="Rectangle-Copy-2" width="321.474" height="214" x="696.526" fill="#CACACA"/>
          <g id="verdict-logo" fill="#C53F35" transform="translate(383.512 56.316)">
            <g id="verdict-logo-small">
              <g id="Group">
                <path id="Shape" d="M253.166857,0.969335526 C238.2969,5.56892763 238.060108,4.83083882 212.608066,12.0058224 C212.608066,12.0058224 182.656958,20.8438816 182.656958,51.8309408 C182.656958,82.8116645 200.582824,92.3212895 215.48158,95.7931579 L215.48158,83.6764638 C215.48158,83.6764638 194.621402,80.7874638 194.621402,51.7707533 C194.621402,26.7137467 223.462142,21.5502928 223.462142,21.5502928 L223.590139,97.7951842 L235.356188,100.921766 L235.314589,18.2019671 L253.166857,13.3046053 L253.166857,0.969335526 Z M45.9986296,11.8949507 L29.0231353,70.2388125 L15.0331521,4.57108224 L0.534384079,0.671565789 L24.805661,99.0622895 L32.5686297,96.8765329 L57.8894753,14.3594704 L45.9986296,11.8949507 L45.9986296,11.8949507 Z M104.284893,19.9695789 C98.4322674,18.1132697 67.4347909,15.6012336 67.4347909,15.6012336 L43.1475145,94.6939441 C43.1475145,94.6939441 61.3933709,90.6803882 91.9716599,89.1123454 C91.7028679,84.208648 91.6516694,81.3418224 90.8740926,77.3979572 C86.93501,77.7464112 59.8254176,80.0652138 59.8254176,80.0652138 L64.5100781,65.1355461 L74.8233708,64.8124342 L78.2600684,53.1867434 L67.668384,53.4084868 L75.8601399,28.2754539 C75.8601399,28.2754539 96.0035398,30.0684079 98.278672,30.6829539 C102.976132,31.8581941 104.691281,35.4345987 104.691281,41.3868257 C104.240094,47.3105428 100.924993,50.8014178 93.3316194,52.3219441 C89.9077214,53.0885428 87.0918053,53.1170526 87.0918053,53.1170526 L83.8535018,64.5146645 C83.8535018,64.5146645 90.426106,64.2390691 95.1619649,68.5155493 C99.6162322,72.8458816 100.736199,75.2122007 101.328181,88.6466842 C107.043211,88.5136382 108.927955,88.3362434 113.683013,88.2665526 C112.79344,68.1670954 103.520116,60.7006776 103.520116,60.7006776 C103.520116,60.7006776 115.45896,54.4981974 116.198138,41.823977 C116.326134,35.7101941 114.057402,22.6875197 104.288093,19.9695789 L104.284893,19.9695789 Z M117.628496,18.7214803 C120.329215,22.1648388 122.341955,27.0938783 123.369124,31.6142763 C127.381805,31.6079408 147.915593,30.7051283 148.277182,52.2459178 C148.277182,79.3904803 126.965817,76.2480592 120.406013,76.2924079 C121.621977,80.9236776 121.724373,85.1811513 121.948367,88.1968618 C127.980187,88.2095329 160.136029,93.1068947 160.136029,52.0526842 C160.136029,17.6634474 125.417063,18.7024737 117.631695,18.7214803 L117.628496,18.7214803 Z M165.681464,89.4576316 L176.794733,90.2495724 L176.794733,16.5959112 L165.681464,17.4607105 L165.681464,89.4576316 Z"/>
              </g>
            </g>
          </g>
        </g>
        <g id="stairs" transform="translate(1215 1756)">
          <rect id="Rectangle-2" width="194.455" height="36.581" fill="#BEBEBE"/>
          <rect id="Rectangle-2-Copy" width="194.455" height="36.581" x="28.182" y="28.14" fill="#A6A6A6"/>
          <rect id="Rectangle-2-Copy-2" width="194.455" height="36.581" x="56.364" y="56.279" fill="#BEBEBE"/>
          <rect id="Rectangle-2-Copy-3" width="194.455" height="36.581" x="84.545" y="84.419" fill="#A6A6A6"/>
        </g>
      </g>
      <g id="Hero" transform="translate(631 2222)">
        <g id="hands">
          <g id="left-hand">
            <g id="hand" fill="#787878" transform="matrix(-1 0 0 1 701 53)">
              <path id="Rectangle-6" d="M248.405133,221.900032 C248.405133,186.550658 277.052788,157.894328 312.413792,157.894328 L372.42629,157.894328 L504.391173,35.7452945 C530.331378,11.7345814 545.488243,20.3150597 538.243765,54.9161276 L489.131449,289.48632 L489.131449,872.502028 C489.131449,907.844995 460.482383,936.49613 425.134856,936.49613 L312.401726,936.49613 C277.057384,936.49613 248.405133,907.832805 248.405133,872.490426 L248.405133,221.900032 Z" transform="rotate(-22 394.23 479.313)"/>
              <ellipse id="Oval" cx="57.446" cy="132.077" rx="39.209" ry="39.204"/>
              <ellipse id="Oval-Copy" cx="39.209" cy="183.133" rx="39.209" ry="39.204"/>
              <ellipse id="Oval-Copy-2" cx="39.209" cy="241.483" rx="39.209" ry="39.204"/>
              <ellipse id="Oval-Copy-3" cx="55.622" cy="308.95" rx="39.209" ry="39.204"/>
            </g>
            <g id="phone" transform="translate(351)">
              <g id="base" fill="#3B3B3B">
                <rect id="Rectangle-7" width="293.613" height="528.793" x=".945"/>
              </g>
              <g id="screen" transform="translate(15 21)">
                <mask id="mask-2" fill="white">
                  <use xlink:href="#path-1"/>
                </mask>
                <use id="Mask" fill="#D8D8D8" xlink:href="#path-1"/>
                <g id="home-screen" mask="url(#mask-2)">
                  <rect id="Rectangle-7-Copy-2" width="266.258" height="435.798" x=".534" y=".881" fill="#D8D8D8"/>
                  <rect id="Rectangle-5" width="58" height="58" x="23" y="33" fill="#9D9D9D" rx="8"/>
                  <rect id="Rectangle-5-Copy-3" width="58" height="58" x="23" y="115" fill="#9D9D9D" rx="8"/>
                  <rect id="Rectangle-5-Copy" width="58" height="58" x="105" y="33" fill="#9D9D9D" rx="8"/>
                  <rect id="Rectangle-5-Copy-4" width="58" height="58" x="105" y="115" fill="#9D9D9D" rx="8"/>
                  <rect id="Rectangle-5-Copy-2" width="58" height="58" x="187" y="33" fill="#9D9D9D" rx="8"/>
                  <rect id="Rectangle-5-Copy-5" width="58" height="58" x="187" y="115" fill="#9D9D9D" rx="8"/>
                  <rect id="Rectangle-5-Copy-8" width="58" height="58" x="23" y="197" fill="#9D9D9D" rx="8"/>
                  <rect id="Rectangle-5-Copy-7" width="58" height="58" x="105" y="197" fill="#9D9D9D" rx="8"/>
                  <rect id="Rectangle-5-Copy-6" width="58" height="58" x="187" y="197" fill="#9D9D9D" rx="8"/>
                  <rect id="Rectangle-5-Copy-11" width="58" height="58" x="23" y="279" fill="#9D9D9D" rx="8"/>
                  <rect id="Rectangle-5-Copy-10" width="58" height="58" x="105" y="279" fill="#9D9D9D" rx="8"/>
                  <rect id="Rectangle-5-Copy-9" width="58" height="58" x="187" y="279" fill="#9D9D9D" rx="8"/>
                  <rect id="Rectangle-5-Copy-14" width="58" height="58" x="23" y="361" fill="#9D9D9D" rx="8"/>
                  <rect id="Rectangle-5-Copy-13" width="58" height="58" x="105" y="361" fill="#9D9D9D" rx="8"/>
                  <rect id="Rectangle-5-Copy-12" width="58" height="58" x="187" y="361" fill="#9D9D9D" rx="8"/>
                </g>
                <g id="notification" transform="translate(-22)" mask="url(#mask-2)">
                  <rect id="Rectangle-7-Copy-2" width="266.258" height="435.798" x="22.534" y=".881" fill="#F4F4F4"/>
                  <text id="NOTIFICATION" font-family="OpenSans-Bold, Open Sans" font-size="33" font-weight="bold">
                    <tspan x="38.099" y="186" fill="#C04040">NOTIFICATION</tspan>
                  </text>
                </g>
                <g id="UI" mask="url(#mask-2)">
                  <rect id="Rectangle-7-Copy-2" width="266.258" height="435.798" x=".534" y=".881" fill="#F4F4F4"/>
                  <circle id="Oval-3" cx="73" cy="80" r="50" fill="#D8D8D8"/>
                  <rect id="Rectangle-8" width="96" height="50" x="149" y="159" fill="#D8D8D8"/>
                  <rect id="Rectangle-8-Copy" width="96" height="50" x="149" y="229" fill="#D8D8D8"/>
                  <rect id="Rectangle-8-Copy-2" width="96" height="50" x="149" y="299" fill="#D8D8D8"/>
                  <rect id="Rectangle-8-Copy-5" width="96" height="50" x="29" y="159" fill="#D8D8D8"/>
                  <rect id="Rectangle-8-Copy-4" width="96" height="50" x="29" y="229" fill="#D8D8D8"/>
                  <rect id="Rectangle-8-Copy-3" width="96" height="50" x="29" y="299" fill="#D8D8D8"/>
                  <circle id="Oval-3-Copy" cx="193" cy="80" r="50" fill="#D8D8D8"/>
                </g>
              </g>
            </g>
          </g>
          <g id="right-hand" fill="#787878" transform="translate(406 158)">
            <path id="Rectangle-6-Copy" d="M0.943862745,255.749929 C0.943862745,220.400554 29.5915172,191.744225 64.9525213,191.744225 L124.965019,191.744225 L241.670179,323.336216 L241.670179,906.351924 C241.670179,941.694891 213.021113,970.346027 177.673585,970.346027 L64.9404559,970.346027 C29.5961134,970.346027 0.943862745,941.682701 0.943862745,906.340323 L0.943862745,255.749929 Z" transform="matrix(-1 0 0 1 242.614 0)"/>
            <path id="Rectangle-6-Copy-2" d="M101.632419,417.625134 C66.3149152,419.022498 33.2012757,391.849819 27.6738248,356.950868 L2.63817535,198.881998 L99.1138875,168.266302 C99.1138875,168.266302 142.239658,-5.21040474 182.145894,0.127413859 C222.052131,5.46523246 182.36955,349.830183 182.36955,349.830183 L182.36955,414.430707 L101.632419,417.625134 Z" transform="matrix(-1 0 0 1 202.578 0)"/>
          </g>
        </g>
      </g>
      <text id="Message-box-2" fill="#323030" transform="translate(742 2071)" font-size="72" font-family="OpenSans-Bold, Open Sans" font-weight="bold">
        <tspan x=".232" y="77">Message box 2</tspan>
      </text>
      <path id="Message-box-1" fill="#323030" d="M22.4628906,55 L10.0878906,14.6757812 L9.77148438,14.6757812 C10.2167991,22.8789473 10.4394531,28.3515488 10.4394531,31.09375 L10.4394531,55 L0.701171875,55 L0.701171875,3.6015625 L15.5371094,3.6015625 L27.7011719,42.90625 L27.9121094,42.90625 L40.8144531,3.6015625 L55.6503906,3.6015625 L55.6503906,55 L45.4902344,55 L45.4902344,30.671875 C45.4902344,29.5234318 45.5078123,28.1992262 45.5429688,26.6992188 C45.5781252,25.1992112 45.7363267,21.2148761 46.0175781,14.7460938 L45.7011719,14.7460938 L32.4472656,55 L22.4628906,55 Z M84.0214844,22.5859375 C81.7480355,22.5859375 79.9668033,23.3066334 78.6777344,24.7480469 C77.3886654,26.1894603 76.6503916,28.2343618 76.4628906,30.8828125 L91.5097656,30.8828125 C91.4628904,28.2343618 90.7714911,26.1894603 89.4355469,24.7480469 C88.0996027,23.3066334 86.2949332,22.5859375 84.0214844,22.5859375 Z M85.5332031,55.703125 C79.2050465,55.703125 74.2597834,53.9570487 70.6972656,50.4648438 C67.1347478,46.9726388 65.3535156,42.0273757 65.3535156,35.6289062 C65.3535156,29.0429358 66.9999835,23.9511899 70.2929688,20.3535156 C73.585954,16.7558414 78.1386428,14.9570312 83.9511719,14.9570312 C89.5058871,14.9570312 93.8300627,16.5390467 96.9238281,19.703125 C100.017594,22.8672033 101.564453,27.2382534 101.564453,32.8164062 L101.564453,38.0195312 L76.2167969,38.0195312 C76.333985,41.0664215 77.2363197,43.4453039 78.9238281,45.15625 C80.6113366,46.8671961 82.9785004,47.7226562 86.0253906,47.7226562 C88.39259,47.7226562 90.6308488,47.476565 92.7402344,46.984375 C94.8496199,46.492185 97.0527229,45.7070366 99.3496094,44.6289062 L99.3496094,52.9257812 C97.4746,53.8632859 95.4707138,54.5605446 93.3378906,55.0175781 C91.2050675,55.4746117 88.603531,55.703125 85.5332031,55.703125 Z M137.705078,43.328125 C137.705078,47.3593952 136.304702,50.429677 133.503906,52.5390625 C130.703111,54.648448 126.5137,55.703125 120.935547,55.703125 C118.076158,55.703125 115.638682,55.5097676 113.623047,55.1230469 C111.607412,54.7363262 109.720712,54.1679725 107.962891,53.4179688 L107.962891,44.5585938 C109.955088,45.4960984 112.199206,46.2812468 114.695312,46.9140625 C117.191419,47.5468782 119.388662,47.8632812 121.287109,47.8632812 C125.177754,47.8632812 127.123047,46.7382925 127.123047,44.4882812 C127.123047,43.644527 126.865237,42.958987 126.349609,42.4316406 C125.833982,41.9042942 124.943366,41.306644 123.677734,40.6386719 C122.412103,39.9706998 120.72462,39.1914107 118.615234,38.3007812 C115.591782,37.0351499 113.371101,35.8632866 111.953125,34.7851562 C110.535149,33.7070259 109.503909,32.4707101 108.859375,31.0761719 C108.214841,29.6816337 107.892578,27.9648539 107.892578,25.9257812 C107.892578,22.4335763 109.24608,19.7324314 111.953125,17.8222656 C114.66017,15.9120998 118.498022,14.9570312 123.466797,14.9570312 C128.201196,14.9570312 132.806618,15.9882709 137.283203,18.0507812 L134.048828,25.7851562 C132.080068,24.941402 130.240243,24.2500027 128.529297,23.7109375 C126.818351,23.1718723 125.072275,22.9023438 123.291016,22.9023438 C120.126937,22.9023438 118.544922,23.7578039 118.544922,25.46875 C118.544922,26.4296923 119.054682,27.2617152 120.074219,27.9648438 C121.093755,28.6679723 123.326155,29.7109306 126.771484,31.09375 C129.841812,32.3359437 132.09179,33.4960884 133.521484,34.5742188 C134.951179,35.6523491 136.005856,36.8945242 136.685547,38.3007812 C137.365238,39.7070383 137.705078,41.3828028 137.705078,43.328125 Z M173.494141,43.328125 C173.494141,47.3593952 172.093764,50.429677 169.292969,52.5390625 C166.492173,54.648448 162.302762,55.703125 156.724609,55.703125 C153.86522,55.703125 151.427744,55.5097676 149.412109,55.1230469 C147.396474,54.7363262 145.509774,54.1679725 143.751953,53.4179688 L143.751953,44.5585938 C145.744151,45.4960984 147.988269,46.2812468 150.484375,46.9140625 C152.980481,47.5468782 155.177725,47.8632812 157.076172,47.8632812 C160.966816,47.8632812 162.912109,46.7382925 162.912109,44.4882812 C162.912109,43.644527 162.654299,42.958987 162.138672,42.4316406 C161.623044,41.9042942 160.732428,41.306644 159.466797,40.6386719 C158.201166,39.9706998 156.513682,39.1914107 154.404297,38.3007812 C151.380844,37.0351499 149.160163,35.8632866 147.742188,34.7851562 C146.324212,33.7070259 145.292972,32.4707101 144.648438,31.0761719 C144.003903,29.6816337 143.681641,27.9648539 143.681641,25.9257812 C143.681641,22.4335763 145.035143,19.7324314 147.742188,17.8222656 C150.449232,15.9120998 154.287085,14.9570312 159.255859,14.9570312 C163.990258,14.9570312 168.595681,15.9882709 173.072266,18.0507812 L169.837891,25.7851562 C167.869131,24.941402 166.029305,24.2500027 164.318359,23.7109375 C162.607413,23.1718723 160.861337,22.9023438 159.080078,22.9023438 C155.916,22.9023438 154.333984,23.7578039 154.333984,25.46875 C154.333984,26.4296923 154.843745,27.2617152 155.863281,27.9648438 C156.882818,28.6679723 159.115217,29.7109306 162.560547,31.09375 C165.630875,32.3359437 167.880852,33.4960884 169.310547,34.5742188 C170.740242,35.6523491 171.794918,36.8945242 172.474609,38.3007812 C173.1543,39.7070383 173.494141,41.3828028 173.494141,43.328125 Z M206.822266,55 L204.748047,49.65625 L204.466797,49.65625 C202.6621,51.9296989 200.804697,53.505855 198.894531,54.3847656 C196.984365,55.2636763 194.494156,55.703125 191.423828,55.703125 C187.650372,55.703125 184.679698,54.6250108 182.511719,52.46875 C180.343739,50.3124892 179.259766,47.2422074 179.259766,43.2578125 C179.259766,39.0859166 180.718735,36.0097755 183.636719,34.0292969 C186.554702,32.0488182 190.955049,30.9531261 196.837891,30.7421875 L203.658203,30.53125 L203.658203,28.8085938 C203.658203,24.8241988 201.619161,22.8320312 197.541016,22.8320312 C194.400375,22.8320312 190.709006,23.7812405 186.466797,25.6796875 L182.916016,18.4375 C187.439476,16.0703007 192.455051,14.8867188 197.962891,14.8867188 C203.236354,14.8867188 207.279283,16.0351448 210.091797,18.3320312 C212.904311,20.6289177 214.310547,24.1210703 214.310547,28.8085938 L214.310547,55 L206.822266,55 Z M203.658203,36.7890625 L199.509766,36.9296875 C196.392563,37.023438 194.072273,37.5859323 192.548828,38.6171875 C191.025383,39.6484427 190.263672,41.2187395 190.263672,43.328125 C190.263672,46.3515776 191.99803,47.8632812 195.466797,47.8632812 C197.951184,47.8632812 199.937493,47.1484446 201.425781,45.71875 C202.91407,44.2890554 203.658203,42.3906368 203.658203,40.0234375 L203.658203,36.7890625 Z M259.556641,15.6953125 L259.556641,21.1445312 L253.404297,22.7265625 C254.529302,24.4843838 255.091797,26.4531141 255.091797,28.6328125 C255.091797,32.8515836 253.621108,36.1386601 250.679688,38.4941406 C247.738267,40.8496212 243.654323,42.0273438 238.427734,42.0273438 L236.494141,41.921875 L234.912109,41.7460938 C233.810541,42.589848 233.259766,43.5273386 233.259766,44.5585938 C233.259766,46.1054765 235.228496,46.8789062 239.166016,46.8789062 L245.845703,46.8789062 C250.158225,46.8789062 253.445301,47.8046782 255.707031,49.65625 C257.968761,51.5078218 259.099609,54.2265446 259.099609,57.8125 C259.099609,62.406273 257.183613,65.9687373 253.351562,68.5 C249.519512,71.0312627 244.017614,72.296875 236.845703,72.296875 C231.361301,72.296875 227.171889,71.3418064 224.277344,69.4316406 C221.382798,67.5214748 219.935547,64.8437672 219.935547,61.3984375 C219.935547,59.0312382 220.673821,57.0507892 222.150391,55.4570312 C223.626961,53.8632733 225.794908,52.7265659 228.654297,52.046875 C227.552729,51.5781227 226.591801,50.8105522 225.771484,49.7441406 C224.951168,48.677729 224.541016,47.546881 224.541016,46.3515625 C224.541016,44.851555 224.974605,43.6035206 225.841797,42.6074219 C226.708989,41.6113231 227.962882,40.6328173 229.603516,39.671875 C227.541005,38.7812455 225.906256,37.3515723 224.699219,35.3828125 C223.492181,33.4140527 222.888672,31.0937634 222.888672,28.421875 C222.888672,24.1327911 224.283189,20.816418 227.072266,18.4726562 C229.861342,16.1288945 233.845677,14.9570312 239.025391,14.9570312 C240.126959,14.9570312 241.433586,15.0566396 242.945312,15.2558594 C244.457039,15.4550791 245.423826,15.601562 245.845703,15.6953125 L259.556641,15.6953125 Z M229.216797,60.5546875 C229.216797,62.0312574 229.925774,63.191402 231.34375,64.0351562 C232.761726,64.8789105 234.748034,65.3007812 237.302734,65.3007812 C241.146504,65.3007812 244.158192,64.7734428 246.337891,63.71875 C248.517589,62.6640572 249.607422,61.2226654 249.607422,59.3945312 C249.607422,57.9179614 248.962897,56.8984403 247.673828,56.3359375 C246.384759,55.7734347 244.392592,55.4921875 241.697266,55.4921875 L236.142578,55.4921875 C234.173818,55.4921875 232.52735,55.9550735 231.203125,56.8808594 C229.8789,57.8066453 229.216797,59.0312424 229.216797,60.5546875 Z M233.119141,28.5625 C233.119141,30.6953232 233.605464,32.3828063 234.578125,33.625 C235.550786,34.8671937 237.033193,35.4882812 239.025391,35.4882812 C241.041026,35.4882812 242.517573,34.8671937 243.455078,33.625 C244.392583,32.3828063 244.861328,30.6953232 244.861328,28.5625 C244.861328,23.8281013 242.916035,21.4609375 239.025391,21.4609375 C235.087871,21.4609375 233.119141,23.8281013 233.119141,28.5625 Z M282.302734,22.5859375 C280.029286,22.5859375 278.248053,23.3066334 276.958984,24.7480469 C275.669915,26.1894603 274.931642,28.2343618 274.744141,30.8828125 L289.791016,30.8828125 C289.74414,28.2343618 289.052741,26.1894603 287.716797,24.7480469 C286.380853,23.3066334 284.576183,22.5859375 282.302734,22.5859375 Z M283.814453,55.703125 C277.486296,55.703125 272.541033,53.9570487 268.978516,50.4648438 C265.415998,46.9726388 263.634766,42.0273757 263.634766,35.6289062 C263.634766,29.0429358 265.281234,23.9511899 268.574219,20.3535156 C271.867204,16.7558414 276.419893,14.9570312 282.232422,14.9570312 C287.787137,14.9570312 292.111313,16.5390467 295.205078,19.703125 C298.298844,22.8672033 299.845703,27.2382534 299.845703,32.8164062 L299.845703,38.0195312 L274.498047,38.0195312 C274.615235,41.0664215 275.51757,43.4453039 277.205078,45.15625 C278.892587,46.8671961 281.25975,47.7226562 284.306641,47.7226562 C286.67384,47.7226562 288.912099,47.476565 291.021484,46.984375 C293.13087,46.492185 295.333973,45.7070366 297.630859,44.6289062 L297.630859,52.9257812 C295.75585,53.8632859 293.751964,54.5605446 291.619141,55.0175781 C289.486317,55.4746117 286.884781,55.703125 283.814453,55.703125 Z M349.134766,14.9570312 C353.775414,14.9570312 357.40819,16.76756 360.033203,20.3886719 C362.658216,24.0097837 363.970703,28.9726247 363.970703,35.2773438 C363.970703,41.7695637 362.617201,46.7968572 359.910156,50.359375 C357.203111,53.9218928 353.517601,55.703125 348.853516,55.703125 C344.236305,55.703125 340.615248,54.0273605 337.990234,50.6757812 L337.251953,50.6757812 L335.458984,55 L327.267578,55 L327.267578,0.296875 L337.990234,0.296875 L337.990234,13.0234375 C337.990234,14.6406331 337.849611,17.2304509 337.568359,20.7929688 L337.990234,20.7929688 C340.498059,16.9023243 344.212866,14.9570312 349.134766,14.9570312 Z M345.689453,23.5351562 C343.041002,23.5351562 341.107428,24.3496012 339.888672,25.9785156 C338.669916,27.60743 338.03711,30.2968562 337.990234,34.046875 L337.990234,35.2070312 C337.990234,39.4258023 338.617181,42.4492096 339.871094,44.2773438 C341.125006,46.1054779 343.111315,47.0195312 345.830078,47.0195312 C348.033214,47.0195312 349.78515,46.0058695 351.085938,43.9785156 C352.386725,41.9511617 353.037109,39.0039256 353.037109,35.1367188 C353.037109,31.2695119 352.380866,28.3691503 351.068359,26.4355469 C349.755853,24.5019435 347.962902,23.5351562 345.689453,23.5351562 Z M381.373047,35.2773438 C381.373047,39.1679882 382.011712,42.109365 383.289062,44.1015625 C384.566413,46.09376 386.64647,47.0898438 389.529297,47.0898438 C392.388686,47.0898438 394.445306,46.0996193 395.699219,44.1191406 C396.953131,42.138662 397.580078,39.1914258 397.580078,35.2773438 C397.580078,31.3866993 396.947272,28.4687597 395.681641,26.5234375 C394.416009,24.5781153 392.341811,23.6054688 389.458984,23.6054688 C386.599595,23.6054688 384.537116,24.572256 383.271484,26.5058594 C382.005853,28.4394628 381.373047,31.3632617 381.373047,35.2773438 Z M408.548828,35.2773438 C408.548828,41.6758132 406.861345,46.6796695 403.486328,50.2890625 C400.111311,53.8984555 395.412139,55.703125 389.388672,55.703125 C385.615216,55.703125 382.287124,54.8769614 379.404297,53.2246094 C376.52147,51.5722574 374.306648,49.1992342 372.759766,46.1054688 C371.212883,43.0117033 370.439453,39.4023644 370.439453,35.2773438 C370.439453,28.8554366 372.115218,23.8632991 375.466797,20.3007812 C378.818376,16.7382634 383.529267,14.9570312 389.599609,14.9570312 C393.373066,14.9570312 396.701157,15.7773355 399.583984,17.4179688 C402.466811,19.058602 404.681633,21.4140471 406.228516,24.484375 C407.775398,27.5547029 408.548828,31.1523231 408.548828,35.2773438 Z M424.017578,34.9257812 L411.361328,15.6953125 L423.525391,15.6953125 L431.154297,28.2109375 L438.853516,15.6953125 L451.017578,15.6953125 L438.220703,34.9257812 L451.615234,55 L439.416016,55 L431.154297,41.5351562 L422.857422,55 L410.693359,55 L424.017578,34.9257812 Z M500.412109,55 L489.548828,55 L489.548828,25.2578125 L489.654297,20.3710938 L489.830078,15.0273438 C488.025382,16.8320403 486.771488,18.0156222 486.068359,18.578125 L480.162109,23.3242188 L474.923828,16.7851562 L491.482422,3.6015625 L500.412109,3.6015625 L500.412109,55 Z" transform="translate(750 1257)"/>
    </g>
  </g>
</svg>
